<svg width="222" height="70" viewBox="0 0 222 70" fill="none" xmlns="http://www.w3.org/2000/svg">
<path d="M2.2 31.476V15.504H6.204V31.476H2.2ZM2.2 15.504C2.2 13.8907 2.56667 12.468 3.3 11.236C4.03333 9.97467 5.06 9.00667 6.38 8.332C7.7 7.628 9.21067 7.276 10.912 7.276V10.752C9.44533 10.752 8.28667 11.1627 7.436 11.984C6.61467 12.8053 6.204 13.9787 6.204 15.504H2.2ZM2.2 31.432H6.204C6.204 32.9573 6.61467 34.1453 7.436 34.996C8.28667 35.8173 9.44533 36.228 10.912 36.228V39.704C9.21067 39.704 7.7 39.352 6.38 38.648C5.06 37.944 4.03333 36.976 3.3 35.744C2.56667 34.512 2.2 33.0747 2.2 31.432ZM16.148 16.648C15.972 14.8 15.4147 13.3627 14.476 12.336C13.5667 11.28 12.364 10.752 10.868 10.752V7.276C13.3613 7.276 15.3853 8.03867 16.94 9.564C18.524 11.0893 19.4773 13.2013 19.8 15.9L16.148 16.648ZM16.148 30.332L19.8 31.036C19.4773 33.764 18.524 35.8907 16.94 37.416C15.3853 38.9413 13.3613 39.704 10.868 39.704V36.228C12.364 36.228 13.5667 35.7147 14.476 34.688C15.4147 33.632 15.972 32.18 16.148 30.332ZM35.5317 39V23.864H39.5357V39H35.5317ZM30.1637 39.66L30.4717 36.36C31.5277 36.36 32.4224 36.096 33.1557 35.568C33.9184 35.04 34.5051 34.2627 34.9157 33.236C35.3264 32.2093 35.5317 30.992 35.5317 29.584L37.5117 29.496C37.5117 31.4907 37.1891 33.2507 36.5437 34.776C35.8984 36.3013 35.0184 37.504 33.9037 38.384C32.8184 39.2347 31.5717 39.66 30.1637 39.66ZM30.1637 39.66C28.8437 39.66 27.6411 39.352 26.5557 38.736C25.4704 38.12 24.6051 37.284 23.9597 36.228C23.3144 35.1427 22.9917 33.94 22.9917 32.62L26.7757 32.488C26.7757 33.6027 27.1424 34.5267 27.8757 35.26C28.6384 35.9933 29.5037 36.36 30.4717 36.36L30.1637 39.66ZM22.9917 32.62C22.9917 31.2413 23.3291 30.0387 24.0037 29.012C24.7077 27.956 25.6464 27.12 26.8197 26.504C27.9931 25.888 29.3277 25.58 30.8237 25.58L31.0437 28.66C29.8117 28.66 28.7851 29.0267 27.9637 29.76C27.1717 30.464 26.7757 31.3733 26.7757 32.488L22.9917 32.62ZM31.0437 28.66L30.8237 25.58H37.5997V28.66H31.0437ZM35.5317 29.584V23.908H37.5117V29.496L35.5317 29.584ZM39.5357 23.952H35.5317C35.5317 22.6613 35.1357 21.6053 34.3437 20.784C33.5811 19.9627 32.5837 19.552 31.3517 19.552V16.12C32.9357 16.12 34.3291 16.4573 35.5317 17.132C36.7637 17.8067 37.7317 18.7453 38.4357 19.948C39.1691 21.1213 39.5357 22.456 39.5357 23.952ZM27.2157 23.424L23.5197 22.676C23.6957 21.356 24.1357 20.212 24.8397 19.244C25.5731 18.276 26.4971 17.5133 27.6117 16.956C28.7557 16.3987 30.0171 16.12 31.3957 16.12V19.552C30.3104 19.552 29.3717 19.8747 28.5797 20.52C27.8171 21.136 27.3624 22.104 27.2157 23.424ZM44.0189 39V16.78H48.0229V39H44.0189ZM46.2189 24.348C46.2189 22.8227 46.4829 21.444 47.0109 20.212C47.5682 18.98 48.3162 18.0267 49.2549 17.352C50.1936 16.648 51.2496 16.296 52.4229 16.296L51.5429 20.036C50.5162 20.036 49.6656 20.4467 48.9909 21.268C48.3456 22.06 48.0229 23.0867 48.0229 24.348H46.2189ZM54.3589 21.224C53.9189 20.8427 53.4496 20.5493 52.9509 20.344C52.4816 20.1387 52.0122 20.036 51.5429 20.036L52.4229 16.296C53.0976 16.296 53.7282 16.4133 54.3149 16.648C54.9016 16.8533 55.4882 17.2347 56.0749 17.792L54.3589 21.224ZM61.2834 32.268V7.936L65.2874 7.98V32.268H61.2834ZM58.7314 20.08V16.78H70.8314V20.08H58.7314ZM61.2834 32.224H65.2874C65.2874 33.0747 65.4047 33.7933 65.6394 34.38C65.8741 34.9667 66.2114 35.4213 66.6514 35.744C67.0914 36.0373 67.6194 36.184 68.2354 36.184L67.8834 39.66C65.8301 39.66 64.2167 39.0147 63.0434 37.724C61.8701 36.404 61.2834 34.5707 61.2834 32.224ZM70.3034 35.436L71.8874 38.296C71.3007 38.736 70.6554 39.0733 69.9514 39.308C69.2767 39.5427 68.5874 39.66 67.8834 39.66L68.2354 36.184C68.6167 36.184 68.9687 36.1253 69.2914 36.008C69.6434 35.8613 69.9807 35.6707 70.3034 35.436ZM87.9261 32.048C87.9261 30.9627 87.6181 30.0093 87.0021 29.188C86.3861 28.3373 85.5941 27.5453 84.6261 26.812C83.6581 26.0787 82.6168 25.3307 81.5021 24.568C80.4168 23.8053 79.3901 22.9693 78.4221 22.06C77.4541 21.1507 76.6621 20.124 76.0461 18.98C75.4301 17.8067 75.1221 16.4573 75.1221 14.932H79.1261C79.1261 15.988 79.4341 16.9413 80.0501 17.792C80.6661 18.6133 81.4581 19.4053 82.4261 20.168C83.3941 20.9013 84.4208 21.6493 85.5061 22.412C86.6208 23.1747 87.6621 24.0107 88.6301 24.92C89.5981 25.8 90.3901 26.8267 91.0061 28C91.6221 29.144 91.9301 30.4933 91.9301 32.048H87.9261ZM75.1221 15.02C75.1221 13.4067 75.4888 12.028 76.2221 10.884C76.9554 9.74 77.9821 8.86 79.3021 8.244C80.6221 7.628 82.1328 7.32 83.8341 7.32V10.752C82.3674 10.752 81.2088 11.1333 80.3581 11.896C79.5368 12.6587 79.1261 13.7 79.1261 15.02H75.1221ZM91.9301 31.96C91.9301 33.544 91.5634 34.9227 90.8301 36.096C90.0968 37.24 89.0701 38.12 87.7501 38.736C86.4594 39.352 84.9488 39.66 83.2181 39.66V36.184C84.6848 36.184 85.8288 35.8173 86.6501 35.084C87.5008 34.3213 87.9261 33.28 87.9261 31.96H91.9301ZM87.9701 14.624C87.8234 13.304 87.3541 12.336 86.5621 11.72C85.7994 11.0747 84.8901 10.752 83.8341 10.752V7.32C85.2128 7.32 86.4594 7.59867 87.5741 8.156C88.6888 8.71333 89.6128 9.476 90.3461 10.444C91.0794 11.412 91.5341 12.556 91.7101 13.876L87.9701 14.624ZM77.9381 30.288C78.1141 32.136 78.6568 33.588 79.5661 34.644C80.5048 35.6707 81.7221 36.184 83.2181 36.184V39.66C80.7248 39.66 78.6861 38.8973 77.1021 37.372C75.5474 35.8467 74.6088 33.7347 74.2861 31.036L77.9381 30.288ZM96.1871 47.14L97.0231 43.84C98.1671 44.1333 99.1204 44.06 99.8831 43.62C100.646 43.18 101.247 42.2707 101.687 40.892H105.383C104.503 43.6493 103.286 45.5267 101.731 46.524C100.206 47.5213 98.3578 47.7267 96.1871 47.14ZM101.687 40.892L109.211 16.78H113.215L105.383 40.892H101.687ZM102.435 40.628L94.6911 16.78H98.6951L104.415 35.04L102.435 40.628ZM116.765 39V16.78H120.769V39H116.765ZM129.129 39V23.864H133.133V39H129.129ZM129.129 23.864C129.129 22.632 128.748 21.6347 127.985 20.872C127.222 20.08 126.24 19.684 125.037 19.684L126.049 16.12C127.398 16.12 128.601 16.4573 129.657 17.132C130.742 17.8067 131.593 18.7307 132.209 19.904C132.825 21.0773 133.133 22.3973 133.133 23.864H129.129ZM119.009 23.952C119.009 22.456 119.317 21.1213 119.933 19.948C120.549 18.7453 121.385 17.8067 122.441 17.132C123.497 16.4573 124.7 16.12 126.049 16.12L125.037 19.684C123.776 19.684 122.749 20.08 121.957 20.872C121.165 21.664 120.769 22.6907 120.769 23.952H119.009Z" fill="#32FD6B"/>
<path d="M193.121 57.8711C194.035 56.957 195.09 56.5 196.285 56.5C197.48 56.5 198.5 56.957 199.344 57.8711C200.258 58.7852 200.715 59.8398 200.715 61.0352C200.715 62.2305 200.258 63.2852 199.344 64.1992C198.5 65.043 197.48 65.4648 196.285 65.4648C195.09 65.4648 194.035 65.043 193.121 64.1992C192.207 63.2852 191.75 62.2305 191.75 61.0352C191.75 59.8398 192.207 58.7852 193.121 57.8711ZM160.215 20.5352H167.598L169.707 24.9648H203.035C203.668 24.9648 204.195 25.2109 204.617 25.7031C205.039 26.125 205.25 26.6523 205.25 27.2852C205.25 27.3555 205.145 27.707 204.934 28.3398L196.918 42.8945C196.074 44.4414 194.773 45.2148 193.016 45.2148H176.246L174.242 48.9062L174.137 49.2227C174.137 49.5742 174.312 49.75 174.664 49.75H200.715V54.2852H173.715C172.52 54.2852 171.465 53.8281 170.551 52.9141C169.707 52 169.285 50.9453 169.285 49.75C169.285 49.0469 169.461 48.3438 169.812 47.6406L172.871 42.0508L164.75 24.9648H160.215V20.5352ZM170.551 57.8711C171.465 56.957 172.52 56.5 173.715 56.5C174.91 56.5 175.965 56.957 176.879 57.8711C177.793 58.7852 178.25 59.8398 178.25 61.0352C178.25 62.2305 177.793 63.2852 176.879 64.1992C175.965 65.043 174.91 65.4648 173.715 65.4648C172.52 65.4648 171.465 65.043 170.551 64.1992C169.707 63.2852 169.285 62.2305 169.285 61.0352C169.285 59.8398 169.707 58.7852 170.551 57.8711Z" fill="#15FF57"/>
<path fill-rule="evenodd" clip-rule="evenodd" d="M156.828 34.5771L151.23 40.292C147.299 38.2777 145.004 35.4471 144.343 31.8003C143.815 28.132 145.096 24.7203 148.187 21.5652C150.112 19.6007 152.417 18.0999 155.104 17.0626L154.367 12.5272C149.974 13.9418 146.319 16.1373 143.404 19.1138C139.322 23.2809 137.648 27.8326 138.382 32.7689C139.248 37.6837 142.277 41.4713 147.468 44.1316L141.87 49.8465L158.849 47.0129L156.828 34.5771ZM186.272 24.9879C185.538 20.0516 182.575 16.2532 177.384 13.5929L182.982 7.87799L166.004 10.7116L168.025 23.1474L173.623 17.4325C177.553 19.4468 179.783 22.2881 180.311 25.9565C180.69 28.0522 180.45 30.0667 179.591 32H185.744C186.524 29.7539 186.7 27.4165 186.272 24.9879Z" fill="#32FD6B"/>
</svg>
